<mxfile host="65bd71144e" scale="3" border="0">
    <diagram id="97M1FuH9a_gQmjIbCxt_" name="第 1 页">
        <mxGraphModel dx="549" dy="311" grid="1" gridSize="10" guides="1" tooltips="1" connect="1" arrows="1" fold="1" page="1" pageScale="1" pageWidth="827" pageHeight="1169" math="1" shadow="0">
            <root>
                <mxCell id="0"/>
                <mxCell id="1" parent="0"/>
                <mxCell id="5" value="" style="rounded=0;whiteSpace=wrap;html=1;labelBorderColor=none;fillColor=#f5f5f5;fontColor=#333333;strokeColor=#666666;fontFamily=Times New Roman;fontStyle=0;fontSize=12;" parent="1" vertex="1">
                    <mxGeometry x="180" y="230" width="180" height="100" as="geometry"/>
                </mxCell>
                <mxCell id="86" style="html=1;exitX=0.5;exitY=1;exitDx=0;exitDy=0;fontSize=12;fontFamily=Times New Roman;fontStyle=0;edgeStyle=orthogonalEdgeStyle;entryX=0.5;entryY=1;entryDx=0;entryDy=0;" parent="1" source="22" target="24" edge="1">
                    <mxGeometry relative="1" as="geometry">
                        <Array as="points">
                            <mxPoint x="293" y="320"/>
                            <mxPoint x="218" y="320"/>
                        </Array>
                        <mxPoint x="210" y="410" as="targetPoint"/>
                    </mxGeometry>
                </mxCell>
                <mxCell id="22" value="" style="rounded=0;whiteSpace=wrap;html=1;labelBorderColor=none;fillColor=#dae8fc;strokeColor=#6c8ebf;shadow=0;glass=0;fontFamily=Times New Roman;fontStyle=0;fontSize=12;" parent="1" vertex="1">
                    <mxGeometry x="270" y="265" width="45" height="30" as="geometry"/>
                </mxCell>
                <mxCell id="94" style="edgeStyle=orthogonalEdgeStyle;html=1;exitX=0.5;exitY=0;exitDx=0;exitDy=0;entryX=0.75;entryY=0;entryDx=0;entryDy=0;fontSize=12;fontFamily=Times New Roman;fontStyle=0" parent="1" source="23" target="25" edge="1">
                    <mxGeometry relative="1" as="geometry">
                        <Array as="points">
                            <mxPoint x="331" y="265"/>
                            <mxPoint x="332" y="265"/>
                            <mxPoint x="332" y="240"/>
                            <mxPoint x="247" y="240"/>
                        </Array>
                    </mxGeometry>
                </mxCell>
                <mxCell id="23" value="" style="rounded=0;whiteSpace=wrap;html=1;labelBorderColor=none;fillColor=#ffe6cc;strokeColor=#d79b00;fontFamily=Times New Roman;fontStyle=0;fontSize=12;" parent="1" vertex="1">
                    <mxGeometry x="316" y="260" width="30" height="40" as="geometry"/>
                </mxCell>
                <mxCell id="24" value="" style="rounded=0;whiteSpace=wrap;html=1;labelBorderColor=none;fillColor=#dae8fc;strokeColor=#6c8ebf;dashed=1;fontFamily=Times New Roman;fontStyle=0;fontSize=12;" parent="1" vertex="1">
                    <mxGeometry x="195" y="265" width="45" height="30" as="geometry"/>
                </mxCell>
                <mxCell id="25" value="" style="rounded=0;whiteSpace=wrap;html=1;labelBorderColor=none;fillColor=#ffe6cc;strokeColor=#d79b00;dashed=1;fontFamily=Times New Roman;fontStyle=0;fontSize=12;" parent="1" vertex="1">
                    <mxGeometry x="225" y="260" width="30" height="40" as="geometry"/>
                </mxCell>
                <mxCell id="32" value="&lt;font style=&quot;font-size: 12px;&quot;&gt;&lt;b style=&quot;font-size: 12px;&quot;&gt;`p_1^{u_t}`&lt;/b&gt;&lt;/font&gt;" style="text;html=1;strokeColor=none;fillColor=none;align=center;verticalAlign=middle;whiteSpace=wrap;rounded=0;shadow=0;glass=0;labelBorderColor=none;sketch=0;fontFamily=Times New Roman;fontStyle=0;fontSize=12;" parent="1" vertex="1">
                    <mxGeometry x="277.5" y="267.5" width="30" height="25" as="geometry"/>
                </mxCell>
                <mxCell id="33" value="&lt;b style=&quot;font-size: 12px;&quot;&gt;&lt;font style=&quot;font-size: 12px;&quot;&gt;`p_2^{u_t}`&lt;/font&gt;&lt;/b&gt;" style="text;html=1;strokeColor=none;fillColor=none;align=center;verticalAlign=middle;whiteSpace=wrap;rounded=0;shadow=0;glass=0;labelBorderColor=none;sketch=0;fontFamily=Times New Roman;fontStyle=0;fontSize=12;" parent="1" vertex="1">
                    <mxGeometry x="316" y="267.5" width="30" height="25" as="geometry"/>
                </mxCell>
                <mxCell id="56" value="(a) `u_t \rightarrow u_s`" style="text;html=1;strokeColor=none;fillColor=none;align=center;verticalAlign=middle;whiteSpace=wrap;rounded=0;shadow=0;glass=0;dashed=1;labelBorderColor=none;sketch=0;fontSize=12;fontFamily=Times New Roman;fontStyle=0" parent="1" vertex="1">
                    <mxGeometry x="230" y="360" width="80" height="30" as="geometry"/>
                </mxCell>
                <mxCell id="62" value="&lt;b style=&quot;font-size: 12px;&quot;&gt;`p_1^{u_s}`&lt;/b&gt;" style="text;html=1;strokeColor=none;fillColor=none;align=center;verticalAlign=middle;whiteSpace=wrap;rounded=0;fontFamily=Times New Roman;fontStyle=0;fontSize=12;" parent="1" vertex="1">
                    <mxGeometry x="190" y="240" width="30" height="30" as="geometry"/>
                </mxCell>
                <mxCell id="64" value="&lt;b style=&quot;font-size: 12px;&quot;&gt;`p_2^{u_s}`&lt;/b&gt;" style="text;html=1;strokeColor=none;fillColor=none;align=center;verticalAlign=middle;whiteSpace=wrap;rounded=0;fontFamily=Times New Roman;fontStyle=0;fontSize=12;" parent="1" vertex="1">
                    <mxGeometry x="241" y="290" width="30" height="30" as="geometry"/>
                </mxCell>
                <mxCell id="69" value="(b) `u_s \rightarrow u_t`" style="text;html=1;strokeColor=none;fillColor=none;align=center;verticalAlign=middle;whiteSpace=wrap;rounded=0;shadow=0;glass=0;dashed=1;labelBorderColor=none;sketch=0;fontSize=12;fontFamily=Times New Roman;fontStyle=0" parent="1" vertex="1">
                    <mxGeometry x="450" y="360" width="80" height="30" as="geometry"/>
                </mxCell>
                <mxCell id="70" value="" style="rounded=0;whiteSpace=wrap;html=1;labelBorderColor=none;fillColor=#f5f5f5;fontColor=#333333;strokeColor=#666666;fontFamily=Times New Roman;fontStyle=0;fontSize=12;" parent="1" vertex="1">
                    <mxGeometry x="400" y="230" width="180" height="100" as="geometry"/>
                </mxCell>
                <mxCell id="71" value="" style="rounded=0;whiteSpace=wrap;html=1;labelBorderColor=none;fillColor=#dae8fc;strokeColor=#6c8ebf;shadow=0;glass=0;dashed=1;fontFamily=Times New Roman;fontStyle=0;fontSize=12;" parent="1" vertex="1">
                    <mxGeometry x="490" y="265" width="45" height="30" as="geometry"/>
                </mxCell>
                <mxCell id="73" value="" style="rounded=0;whiteSpace=wrap;html=1;labelBorderColor=none;fillColor=#ffe6cc;strokeColor=#d79b00;dashed=1;fontFamily=Times New Roman;fontStyle=0;fontSize=12;" parent="1" vertex="1">
                    <mxGeometry x="536" y="260" width="32" height="40" as="geometry"/>
                </mxCell>
                <mxCell id="85" style="html=1;entryX=0.75;entryY=1;entryDx=0;entryDy=0;fontSize=12;fontFamily=Times New Roman;fontStyle=0;edgeStyle=orthogonalEdgeStyle;exitX=0.5;exitY=1;exitDx=0;exitDy=0;" parent="1" source="74" target="79" edge="1">
                    <mxGeometry relative="1" as="geometry">
                        <Array as="points">
                            <mxPoint x="438" y="320"/>
                            <mxPoint x="513" y="320"/>
                        </Array>
                        <mxPoint x="400" y="410" as="sourcePoint"/>
                    </mxGeometry>
                </mxCell>
                <mxCell id="135" style="edgeStyle=orthogonalEdgeStyle;html=1;exitX=0.5;exitY=0;exitDx=0;exitDy=0;entryX=0.5;entryY=0;entryDx=0;entryDy=0;strokeColor=#0000FF;fontColor=#000000;dashed=1;fontFamily=Times New Roman;fontStyle=0;fontSize=12;" parent="1" source="74" target="84" edge="1">
                    <mxGeometry relative="1" as="geometry">
                        <Array as="points">
                            <mxPoint x="437" y="250"/>
                            <mxPoint x="527" y="250"/>
                        </Array>
                    </mxGeometry>
                </mxCell>
                <mxCell id="74" value="" style="rounded=0;whiteSpace=wrap;html=1;labelBorderColor=none;fillColor=#dae8fc;strokeColor=#6c8ebf;fontFamily=Times New Roman;fontStyle=0;fontSize=12;" parent="1" vertex="1">
                    <mxGeometry x="415" y="265" width="45" height="30" as="geometry"/>
                </mxCell>
                <mxCell id="128" style="edgeStyle=orthogonalEdgeStyle;html=1;exitX=0.5;exitY=0;exitDx=0;exitDy=0;entryX=0.5;entryY=0;entryDx=0;entryDy=0;fontFamily=Times New Roman;fontStyle=0;fontSize=12;" parent="1" source="75" target="73" edge="1">
                    <mxGeometry relative="1" as="geometry">
                        <Array as="points">
                            <mxPoint x="460" y="240"/>
                            <mxPoint x="552" y="240"/>
                        </Array>
                    </mxGeometry>
                </mxCell>
                <mxCell id="75" value="" style="rounded=0;whiteSpace=wrap;html=1;labelBorderColor=none;fillColor=#ffe6cc;strokeColor=#d79b00;fontFamily=Times New Roman;fontStyle=0;fontSize=12;" parent="1" vertex="1">
                    <mxGeometry x="445" y="260" width="30" height="40" as="geometry"/>
                </mxCell>
                <mxCell id="79" value="&lt;font style=&quot;font-size: 12px;&quot;&gt;&lt;b style=&quot;font-size: 12px;&quot;&gt;`p_1^{u_t}`&lt;/b&gt;&lt;/font&gt;" style="text;html=1;strokeColor=none;fillColor=none;align=center;verticalAlign=middle;whiteSpace=wrap;rounded=0;shadow=0;glass=0;labelBorderColor=none;sketch=0;dashed=1;fontFamily=Times New Roman;fontStyle=0;fontSize=12;" parent="1" vertex="1">
                    <mxGeometry x="490" y="267.5" width="30" height="25" as="geometry"/>
                </mxCell>
                <mxCell id="80" value="&lt;b style=&quot;font-size: 12px;&quot;&gt;&lt;font style=&quot;font-size: 12px;&quot;&gt;`p_2^{u_t}`&lt;/font&gt;&lt;/b&gt;" style="text;html=1;strokeColor=none;fillColor=none;align=center;verticalAlign=middle;whiteSpace=wrap;rounded=0;shadow=0;glass=0;labelBorderColor=none;sketch=0;fontFamily=Times New Roman;fontStyle=0;fontSize=12;" parent="1" vertex="1">
                    <mxGeometry x="537" y="267.5" width="30" height="25" as="geometry"/>
                </mxCell>
                <mxCell id="81" value="&lt;b style=&quot;font-size: 12px;&quot;&gt;`p_1^{u_s}`&lt;/b&gt;" style="text;html=1;strokeColor=none;fillColor=none;align=center;verticalAlign=middle;whiteSpace=wrap;rounded=0;fontFamily=Times New Roman;fontStyle=0;fontSize=12;" parent="1" vertex="1">
                    <mxGeometry x="410" y="240" width="30" height="30" as="geometry"/>
                </mxCell>
                <mxCell id="82" value="&lt;b style=&quot;font-size: 12px;&quot;&gt;`p_2^{u_s}`&lt;/b&gt;" style="text;html=1;strokeColor=none;fillColor=none;align=center;verticalAlign=middle;whiteSpace=wrap;rounded=0;fontFamily=Times New Roman;fontStyle=0;fontSize=12;" parent="1" vertex="1">
                    <mxGeometry x="462" y="290" width="30" height="28" as="geometry"/>
                </mxCell>
                <mxCell id="84" value="" style="rounded=0;whiteSpace=wrap;html=1;fontSize=12;fillColor=#ffe6cc;strokeColor=#d79b00;dashed=1;fontFamily=Times New Roman;fontStyle=0" parent="1" vertex="1">
                    <mxGeometry x="520" y="265" width="15" height="30" as="geometry"/>
                </mxCell>
                <mxCell id="87" value="&lt;font size=&quot;1&quot; color=&quot;#ff3333&quot; style=&quot;&quot;&gt;&lt;i style=&quot;&quot;&gt;replication error&lt;/i&gt;&lt;/font&gt;" style="text;html=1;strokeColor=none;fillColor=none;align=center;verticalAlign=middle;whiteSpace=wrap;rounded=0;fontSize=12;fontFamily=Times New Roman;fontStyle=0" parent="1" vertex="1">
                    <mxGeometry x="496" y="318" width="84" height="10" as="geometry"/>
                </mxCell>
                <mxCell id="93" value="" style="endArrow=none;dashed=1;html=1;fontSize=12;exitX=0.5;exitY=1;exitDx=0;exitDy=0;entryX=0.5;entryY=0;entryDx=0;entryDy=0;edgeStyle=orthogonalEdgeStyle;strokeColor=#FF3333;fontFamily=Times New Roman;fontStyle=0" parent="1" source="84" target="87" edge="1">
                    <mxGeometry width="50" height="50" relative="1" as="geometry">
                        <mxPoint x="610" y="420" as="sourcePoint"/>
                        <mxPoint x="660" y="370" as="targetPoint"/>
                    </mxGeometry>
                </mxCell>
                <mxCell id="120" value="" style="endArrow=classic;html=1;strokeColor=#000000;strokeWidth=1;fontSize=12;fontFamily=Times New Roman;fontStyle=0" parent="1" edge="1">
                    <mxGeometry width="50" height="50" relative="1" as="geometry">
                        <mxPoint x="180" y="230" as="sourcePoint"/>
                        <mxPoint x="380" y="230" as="targetPoint"/>
                    </mxGeometry>
                </mxCell>
                <mxCell id="121" value="" style="endArrow=classic;html=1;strokeColor=#000000;strokeWidth=1;fontSize=12;entryX=0.5;entryY=0;entryDx=0;entryDy=0;fontFamily=Times New Roman;fontStyle=0" parent="1" target="124" edge="1">
                    <mxGeometry width="50" height="50" relative="1" as="geometry">
                        <mxPoint x="180" y="230" as="sourcePoint"/>
                        <mxPoint x="180" y="340" as="targetPoint"/>
                    </mxGeometry>
                </mxCell>
                <mxCell id="122" value="" style="endArrow=classic;html=1;strokeColor=#000000;strokeWidth=1;fontSize=12;fontFamily=Times New Roman;fontStyle=0" parent="1" edge="1">
                    <mxGeometry width="50" height="50" relative="1" as="geometry">
                        <mxPoint x="400" y="230" as="sourcePoint"/>
                        <mxPoint x="600" y="230" as="targetPoint"/>
                    </mxGeometry>
                </mxCell>
                <mxCell id="123" value="" style="endArrow=classic;html=1;strokeColor=#000000;strokeWidth=1;fontSize=12;fontFamily=Times New Roman;fontStyle=0" parent="1" target="126" edge="1">
                    <mxGeometry width="50" height="50" relative="1" as="geometry">
                        <mxPoint x="400" y="230" as="sourcePoint"/>
                        <mxPoint x="400" y="340" as="targetPoint"/>
                    </mxGeometry>
                </mxCell>
                <mxCell id="124" value="&lt;font style=&quot;font-size: 12px;&quot;&gt;`y`&lt;/font&gt;" style="text;html=1;strokeColor=none;fillColor=none;align=center;verticalAlign=middle;whiteSpace=wrap;rounded=0;dashed=1;fontSize=12;fontFamily=Times New Roman;fontStyle=0" parent="1" vertex="1">
                    <mxGeometry x="165" y="350" width="30" height="20" as="geometry"/>
                </mxCell>
                <mxCell id="125" value="&lt;font style=&quot;font-size: 12px;&quot;&gt;`x`&lt;/font&gt;" style="text;html=1;strokeColor=none;fillColor=none;align=center;verticalAlign=middle;whiteSpace=wrap;rounded=0;dashed=1;fontSize=12;fontFamily=Times New Roman;fontStyle=0" parent="1" vertex="1">
                    <mxGeometry x="360" y="230" width="30" height="20" as="geometry"/>
                </mxCell>
                <mxCell id="126" value="&lt;font style=&quot;font-size: 12px;&quot;&gt;`y`&lt;/font&gt;" style="text;html=1;strokeColor=none;fillColor=none;align=center;verticalAlign=middle;whiteSpace=wrap;rounded=0;dashed=1;fontSize=12;fontFamily=Times New Roman;fontStyle=0" parent="1" vertex="1">
                    <mxGeometry x="385" y="350" width="30" height="20" as="geometry"/>
                </mxCell>
                <mxCell id="127" value="&lt;font style=&quot;font-size: 12px;&quot;&gt;`x`&lt;/font&gt;" style="text;html=1;strokeColor=none;fillColor=none;align=center;verticalAlign=middle;whiteSpace=wrap;rounded=0;dashed=1;fontSize=12;fontFamily=Times New Roman;fontStyle=0" parent="1" vertex="1">
                    <mxGeometry x="580" y="230" width="30" height="20" as="geometry"/>
                </mxCell>
                <mxCell id="129" value="" style="rounded=0;whiteSpace=wrap;html=1;dashed=1;fillColor=#ffe6cc;strokeColor=#6c8ebf;fontFamily=Times New Roman;fontStyle=0;fontSize=12;" parent="1" vertex="1">
                    <mxGeometry x="225" y="265" width="15" height="30" as="geometry"/>
                </mxCell>
                <mxCell id="132" value="" style="rounded=0;whiteSpace=wrap;html=1;dashed=1;fillColor=#ffe6cc;strokeColor=#6c8ebf;fontFamily=Times New Roman;fontStyle=0;fontSize=12;" parent="1" vertex="1">
                    <mxGeometry x="445" y="265" width="15" height="30" as="geometry"/>
                </mxCell>
                <mxCell id="130" value="&lt;font color=&quot;#000000&quot; style=&quot;font-size: 12px;&quot;&gt;&lt;b style=&quot;font-size: 12px;&quot;&gt;`o_1^{u_s}`&lt;/b&gt;&lt;/font&gt;" style="text;html=1;strokeColor=none;fillColor=none;align=center;verticalAlign=middle;whiteSpace=wrap;rounded=0;dashed=1;fontColor=#FF3333;fontFamily=Times New Roman;fontStyle=0;fontSize=12;" parent="1" vertex="1">
                    <mxGeometry x="445" y="269" width="17" height="22" as="geometry"/>
                </mxCell>
                <mxCell id="131" value="&lt;font color=&quot;#000000&quot; style=&quot;font-size: 12px;&quot;&gt;&lt;b style=&quot;font-size: 12px;&quot;&gt;`o_1^{u_s}`&lt;/b&gt;&lt;/font&gt;" style="text;html=1;strokeColor=none;fillColor=none;align=center;verticalAlign=middle;whiteSpace=wrap;rounded=0;dashed=1;fontColor=#FF3333;fontFamily=Times New Roman;fontStyle=0;fontSize=12;" parent="1" vertex="1">
                    <mxGeometry x="225" y="269" width="17" height="22" as="geometry"/>
                </mxCell>
                <mxCell id="134" value="&lt;font color=&quot;#000000&quot; style=&quot;font-size: 12px;&quot;&gt;&lt;b style=&quot;font-size: 12px;&quot;&gt;`o_1^{u_t}`&lt;/b&gt;&lt;/font&gt;" style="text;html=1;strokeColor=none;fillColor=none;align=center;verticalAlign=middle;whiteSpace=wrap;rounded=0;dashed=1;fontColor=#FF3333;fontFamily=Times New Roman;fontStyle=0;fontSize=12;" parent="1" vertex="1">
                    <mxGeometry x="520" y="269" width="17" height="22" as="geometry"/>
                </mxCell>
            </root>
        </mxGraphModel>
    </diagram>
</mxfile>